<?xml version="1.0" encoding="UTF-8" standalone="no"?>
<svg width="19px" height="19px" viewBox="0 0 19 19" version="1.1" xmlns="http://www.w3.org/2000/svg" xmlns:xlink="http://www.w3.org/1999/xlink">
    <!-- Generator: Sketch 50.2 (55047) - http://www.bohemiancoding.com/sketch -->
    <title>Carro</title>
    <desc>Created with Sketch.</desc>
    <defs></defs>
    <g id="Symbols" stroke="none" stroke-width="1" fill="none" fill-rule="evenodd">
        <g id="Header-Extendido-Desktop" transform="translate(-1104.000000, -25.000000)" fill="#FFFFFF" fill-rule="nonzero">
            <g id="Header">
                <path d="M1119,40 C1120.1046,40 1121,40.8954 1121,42 C1121,43.1046 1120.1046,44 1119,44 C1117.8954,44 1117,43.1046 1117,42 C1117,40.8954 1117.8954,40 1119,40 Z M1119,41 C1118.4477,41 1118,41.4477 1118,42 C1118,42.5523 1118.4477,43 1119,43 C1119.5523,43 1120,42.5523 1120,42 C1120,41.4477 1119.5523,41 1119,41 Z M1110,40 C1111.10457,40 1112,40.8954 1112,42 C1112,43.1046 1111.10457,44 1110,44 C1108.89543,44 1108,43.1046 1108,42 C1108,40.8954 1108.89543,40 1110,40 Z M1110,41 C1109.44771,41 1109,41.4477 1109,42 C1109,42.5523 1109.44771,43 1110,43 C1110.55228,43 1111,42.5523 1111,42 C1111,41.4477 1110.55228,41 1110,41 Z M1121,28 L1107.27342,28 L1109.82026,34 L1118,34 C1118.3279,34 1118.619,33.8422 1118.8004,33.5976 L1121.8003,29.59758 C1121.9261,29.43149 1122,29.22438 1122,29.00001 C1122,28.44772 1121.5523,28 1121,28 Z M1118,35 L1109.8655,35 L1109.10138,36.5608 L1109,37 C1109,37.5523 1109.44771,38 1110,38 L1121,38 L1121,39 L1110,39 C1108.89543,39 1108,38.1046 1108,37 C1108,36.6482 1108.09086,36.3175 1108.25038,36.0303 L1108.9697,34.5555 L1105.33811,26 L1104,26 L1104,25 L1105.99999,25.00001 L1106.84894,27 L1121,27 C1122.1046,27.00001 1123,27.89544 1123,29.00001 C1123,29.47749 1122.8327,29.91589 1122.5535,30.25977 L1119.6392,34.1462 C1119.2776,34.6624 1118.6782,35 1118,35 Z" id="Carro"></path>
            </g>
        </g>
    </g>
</svg>