<?xml version="1.0" encoding="UTF-8" standalone="no"?>
<svg width="142px" height="36px" viewBox="0 0 142 36" version="1.1" xmlns="http://www.w3.org/2000/svg" xmlns:xlink="http://www.w3.org/1999/xlink">
    <!-- Generator: Sketch 50.2 (55047) - http://www.bohemiancoding.com/sketch -->
    <title>Logo MGW</title>
    <desc>Created with Sketch.</desc>
    <defs></defs>
    <g id="Symbols" stroke="none" stroke-width="1" fill="none" fill-rule="evenodd">
        <g id="Header-Extendido-Desktop" transform="translate(-106.000000, -14.000000)" fill="#FFFFFF">
            <g id="Header">
                <g id="Logo-MGW" transform="translate(106.000000, 14.000000)">
                    <path d="M23.5818315,14.0812378 L21.9181685,14.0812378 L21.9181685,12.4187622 C21.9181685,10.530665 20.3875035,9 18.4994063,9 C16.6119028,9 15.0812378,10.530665 15.0812378,12.4187622 L15.0812378,14.0812378 L13.4181685,14.0812378 C11.5300712,14.0812378 10,15.6124965 10,17.5 C10,19.3875035 11.5300712,20.9181685 13.4181685,20.9181685 L15.0812378,20.9181685 L15.0812378,22.5818315 C15.0812378,24.469335 16.6119028,26 18.4994063,26 C20.3875035,26 21.9181685,24.469335 21.9181685,22.5818315 L21.9181685,20.9181685 L23.5818315,20.9181685 C25.469335,20.9181685 27,19.3875035 27,17.5 C27,15.6124965 25.4699288,14.0812378 23.5818315,14.0812378" id="Fill-35"></path>
                    <path d="M17.6659188,33.1873891 C9.40144025,32.9925612 2.95481036,26.4229386 2.76424885,18 C2.5730862,9.57706137 9.68818423,3.00008681 17.6659188,2.81261087 C19.4428899,2.77094955 19.4464967,-0.0418022191 17.6659188,0.000471767333 C7.8823584,0.23083436 0.230441971,8.02946586 0.00441317202,18 C-0.221014486,27.9693088 8.22320502,35.777743 17.6659188,35.9995282 C19.4464967,36.0418022 19.4428899,33.2290505 17.6659188,33.1873891" id="Fill-38"></path>
                    <path d="M131,14.5009339 C131,16.4328916 129.432269,18 127.499689,18 C125.565863,18 124,16.4328916 124,14.5009339 C124,12.567731 125.565863,11 127.499689,11 C129.432269,11 131,12.567731 131,14.5009339" id="Fill-36"></path>
                    <path d="M120.499378,25 C118.568558,25 117,23.4346202 117,21.5006227 C117,19.5660025 118.568558,18 120.499378,18 C122.431442,18 124,19.5660025 124,21.5006227 C124,23.4346202 122.431442,25 120.499378,25" id="Fill-37"></path>
                    <path d="M124.334122,35.9995282 C134.117379,35.7697783 141.770129,27.9705341 141.995563,18 C142.221599,8.03069119 133.777123,0.222869696 124.334122,0.000471767333 C122.55349,-0.0418022191 122.557097,2.77094955 124.334122,2.81261087 C132.598852,3.00682614 139.045076,9.57706137 139.236245,18 C139.427413,26.4229386 132.312099,32.9999132 124.334122,33.1873891 C122.557097,33.2290505 122.55349,36.0418022 124.334122,35.9995282" id="Fill-39"></path>
                    <path d="M50.5903883,25.6284153 L50.5436991,18.2199454 L46.9953166,24.1653005 L44.567476,24.1653005 L41.0190936,18.4754098 L41.0190936,25.6284153 L36,25.6284153 L36,9.3715847 L40.5288565,9.3715847 L45.8514302,18.034153 L51.0339361,9.3715847 L55.5627927,9.3715847 L55.6094819,25.6284153 L50.5903883,25.6284153 Z M71.6731753,17.0587432 L76.4588227,17.0587432 L76.4588227,23.9330601 C75.4939068,24.5988194 74.3733762,25.1097432 73.0971972,25.465847 C71.8210182,25.8219508 70.5682027,26 69.3387132,26 C67.5956394,26 66.0315654,25.6400309 64.6464443,24.920082 C63.2613232,24.200133 62.1758091,23.1937678 61.3898696,21.9009563 C60.6039301,20.6081447 60.2109662,19.141174 60.2109662,17.5 C60.2109662,15.858826 60.6039301,14.3918553 61.3898696,13.0990437 C62.1758091,11.8062322 63.2729954,10.799867 64.6814612,10.079918 C66.0899271,9.35996908 67.6812362,9 69.4554363,9 C71.0584416,9 72.4941215,9.26707383 73.7625189,9.80122951 C75.0309163,10.3353852 76.0853045,11.1133829 76.9257151,12.1352459 L73.4006773,15.2240437 C72.3735088,14.0318702 71.1518192,13.4357923 69.7355717,13.4357923 C68.5216454,13.4357923 67.556744,13.7996321 66.8408387,14.5273224 C66.1249334,15.2550127 65.7669861,16.2458954 65.7669861,17.5 C65.7669861,18.7231391 66.1210427,19.7062804 66.8291664,20.4494536 C67.5372901,21.1926267 68.4827378,21.5642077 69.6655379,21.5642077 C70.36588,21.5642077 71.0350858,21.4326061 71.6731753,21.1693989 L71.6731753,17.0587432 Z M108,9.3715847 L102.770805,25.6284153 L96.8646156,25.6284153 L94.2266734,16.942623 L91.4486635,25.6284153 L85.5424743,25.6284153 L80.3132791,9.3715847 L85.9860221,9.3715847 L88.8340659,18.6147541 L91.8455221,9.3715847 L96.9113049,9.3715847 L99.7593487,18.7308743 L102.770805,9.3715847 L108,9.3715847 Z" id="MGW"></path>
                </g>
            </g>
        </g>
    </g>
</svg>